HIERARCHY
ROOT Hips
{
	OFFSET 0.000000 83.214638 0.000000
	CHANNELS 6 Xposition Yposition Zposition Xrotation Yrotation Zrotation
	JOINT Pelvis
	{
		OFFSET 0.000000 0.000000 0.000000
		CHANNELS 3 Xrotation Yrotation Zrotation
		JOINT LeftUpLeg
		{
			OFFSET 8.479700 -4.795502 -0.379100
			CHANNELS 3 Xrotation Yrotation Zrotation
			JOINT LeftLeg
			{
				OFFSET 0.024144 -32.555107 0.112900
				CHANNELS 3 Xrotation Yrotation Zrotation
				JOINT LeftFoot
				{
					OFFSET -0.024144 -32.638630 -3.012600
					CHANNELS 3 Xrotation Yrotation Zrotation
					JOINT LeftToeBase
					{
						OFFSET 0.970200 -13.225400 11.864200
						CHANNELS 3 Xrotation Yrotation Zrotation
						End Site
						{
							OFFSET 0.000000 12.319262 0.000000
						}
					}
					JOINT LFootTongue
					{
						OFFSET 1.142400 -1.059800 6.665200
						CHANNELS 3 Xrotation Yrotation Zrotation
						End Site
						{
							OFFSET 0.000000 12.319262 0.000000
						}
					}
				}
				JOINT LeftPantLeg
				{
					OFFSET 0.918482 -16.533964 -2.284700
					CHANNELS 3 Xrotation Yrotation Zrotation
					End Site
					{
						OFFSET 0.350399 24.744368 0.000000
					}
				}
			}
		}
		JOINT RightUpLeg
		{
			OFFSET -8.479700 -4.795502 -0.379100
			CHANNELS 3 Xrotation Yrotation Zrotation
			JOINT RightLeg
			{
				OFFSET -0.023144 -32.555092 0.112900
				CHANNELS 3 Xrotation Yrotation Zrotation
				JOINT RightFoot
				{
					OFFSET 0.023144 -32.638641 -3.012700
					CHANNELS 3 Xrotation Yrotation Zrotation
					JOINT RightToeBase
					{
						OFFSET -0.970200 -13.225400 11.864200
						CHANNELS 3 Xrotation Yrotation Zrotation
						End Site
						{
							OFFSET 0.000000 12.319244 0.000000
						}
					}
					JOINT RFootTongue
					{
						OFFSET -1.142200 -1.059800 6.665200
						CHANNELS 3 Xrotation Yrotation Zrotation
						End Site
						{
							OFFSET 0.000000 12.319243 0.000000
						}
					}
				}
				JOINT RightPantLeg
				{
					OFFSET -0.919482 -16.533978 -2.284800
					CHANNELS 3 Xrotation Yrotation Zrotation
					End Site
					{
						OFFSET -0.350400 24.744419 0.000000
					}
				}
			}
		}
	}
	JOINT Spine
	{
		OFFSET 0.000000 7.722000 1.166200
		CHANNELS 3 Xrotation Yrotation Zrotation
		JOINT Spine1
		{
			OFFSET 0.000000 12.024101 0.248800
			CHANNELS 3 Xrotation Yrotation Zrotation
			JOINT Spine2
			{
				OFFSET 0.000000 11.502998 -0.491200
				CHANNELS 3 Xrotation Yrotation Zrotation
				JOINT Neck
				{
					OFFSET 0.000000 18.430702 -3.123100
					CHANNELS 3 Xrotation Yrotation Zrotation
					JOINT Head
					{
						OFFSET 0.000000 9.051102 1.034000
						CHANNELS 3 Xrotation Yrotation Zrotation
						JOINT HairB
						{
							OFFSET 0.208400 24.786102 24.822300
							CHANNELS 3 Xrotation Yrotation Zrotation
							End Site
							{
								OFFSET 0.000000 32.263779 0.000000
							}
						}
						JOINT HairA
						{
							OFFSET -7.081100 24.428299 23.196600
							CHANNELS 3 Xrotation Yrotation Zrotation
							End Site
							{
								OFFSET 0.000000 32.263779 0.000000
							}
						}
						JOINT Hat
						{
							OFFSET 16.728800 15.048294 -15.439601
							CHANNELS 3 Xrotation Yrotation Zrotation
							End Site
							{
								OFFSET 0.000000 32.263779 0.000000
							}
						}
					}
				}
				JOINT LeftShoulder
				{
					OFFSET 6.197800 13.665199 -4.064700
					CHANNELS 3 Xrotation Yrotation Zrotation
					JOINT LeftArm
					{
						OFFSET 7.778100 -0.187103 -1.709300
						CHANNELS 3 Xrotation Yrotation Zrotation
						JOINT LeftForeArm
						{
							OFFSET 22.049376 0.000000 0.000000
							CHANNELS 3 Xrotation Yrotation Zrotation
							JOINT LeftHand
							{
								OFFSET 23.009392 0.000000 0.000000
								CHANNELS 3 Xrotation Yrotation Zrotation
								JOINT LeftHandThumb1
								{
									OFFSET 3.507191 -2.063065 3.133727
									CHANNELS 3 Xrotation Yrotation Zrotation
									JOINT LeftHandThumb2
									{
										OFFSET 3.101337 -1.790558 1.790558
										CHANNELS 3 Xrotation Yrotation Zrotation
										JOINT LeftHandThumb3
										{
											OFFSET 3.058640 -1.765907 1.765906
											CHANNELS 3 Xrotation Yrotation Zrotation
											End Site
											{
												OFFSET -0.415260 3.926476 -0.049563
											}
										}
									}
								}
								JOINT LeftHandIndex1
								{
									OFFSET 11.334419 -0.901459 3.706815
									CHANNELS 3 Xrotation Yrotation Zrotation
									JOINT LeftHandIndex2
									{
										OFFSET 3.283112 0.000000 0.000000
										CHANNELS 3 Xrotation Yrotation Zrotation
										JOINT LeftHandIndex3
										{
											OFFSET 3.323853 0.000000 0.000000
											CHANNELS 3 Xrotation Yrotation Zrotation
											End Site
											{
												OFFSET -1.135597 3.097809 0.402452
											}
										}
									}
								}
								JOINT LeftHandMiddle1
								{
									OFFSET 11.335861 0.000000 0.000000
									CHANNELS 3 Xrotation Yrotation Zrotation
									JOINT LeftHandMiddle2
									{
										OFFSET 3.410492 0.000000 0.000000
										CHANNELS 3 Xrotation Yrotation Zrotation
										JOINT LeftHandMiddle3
										{
											OFFSET 3.312172 0.000000 0.000000
											CHANNELS 3 Xrotation Yrotation Zrotation
											End Site
											{
												OFFSET -1.150200 3.080154 0.400270
											}
										}
									}
								}
								JOINT LeftHandRing1
								{
									OFFSET 11.514786 -0.013176 -3.003090
									CHANNELS 3 Xrotation Yrotation Zrotation
									JOINT LeftHandRing2
									{
										OFFSET 3.053307 0.000000 0.000000
										CHANNELS 3 Xrotation Yrotation Zrotation
										JOINT LeftHandRing3
										{
											OFFSET 3.295807 0.000000 0.000000
											CHANNELS 3 Xrotation Yrotation Zrotation
											End Site
											{
												OFFSET -1.281006 3.013344 0.375733
											}
										}
									}
								}
								JOINT LeftHandPinky1
								{
									OFFSET 10.518692 -0.960396 -5.730441
									CHANNELS 3 Xrotation Yrotation Zrotation
									JOINT LeftHandPinky2
									{
										OFFSET 2.861649 0.000000 0.000000
										CHANNELS 3 Xrotation Yrotation Zrotation
										JOINT LeftHandPinky3
										{
											OFFSET 2.863380 0.000000 0.000000
											CHANNELS 3 Xrotation Yrotation Zrotation
											End Site
											{
												OFFSET -0.843597 2.711159 0.369971
											}
										}
									}
								}
							}
							JOINT LSleeve
							{
								OFFSET 6.676277 -0.344902 -1.011730
								CHANNELS 3 Xrotation Yrotation Zrotation
								End Site
								{
									OFFSET 0.000000 14.885353 0.000000
								}
							}
						}
					}
				}
				JOINT RightShoulder
				{
					OFFSET -6.197800 13.665199 -4.064700
					CHANNELS 3 Xrotation Yrotation Zrotation
					JOINT RightArm
					{
						OFFSET -7.778100 -0.187103 -1.709300
						CHANNELS 3 Xrotation Yrotation Zrotation
						JOINT RightForeArm
						{
							OFFSET -22.049376 0.000000 0.000000
							CHANNELS 3 Xrotation Yrotation Zrotation
							JOINT RightHand
							{
								OFFSET -23.009392 0.000000 0.000000
								CHANNELS 3 Xrotation Yrotation Zrotation
								JOINT RightHandThumb1
								{
									OFFSET -3.507191 -2.063065 3.133727
									CHANNELS 3 Xrotation Yrotation Zrotation
									JOINT RightHandThumb2
									{
										OFFSET -3.101337 -1.790558 1.790558
										CHANNELS 3 Xrotation Yrotation Zrotation
										JOINT RightHandThumb3
										{
											OFFSET -3.058640 -1.765907 1.765906
											CHANNELS 3 Xrotation Yrotation Zrotation
											End Site
											{
												OFFSET 0.415260 3.926476 -0.049563
											}
										}
									}
								}
								JOINT RightHandIndex1
								{
									OFFSET -11.334419 -0.901459 3.706815
									CHANNELS 3 Xrotation Yrotation Zrotation
									JOINT RightHandIndex2
									{
										OFFSET -3.283112 0.000000 0.000000
										CHANNELS 3 Xrotation Yrotation Zrotation
										JOINT RightHandIndex3
										{
											OFFSET -3.323853 0.000000 0.000000
											CHANNELS 3 Xrotation Yrotation Zrotation
											End Site
											{
												OFFSET 1.135597 3.097809 0.402452
											}
										}
									}
								}
								JOINT RightHandMiddle1
								{
									OFFSET -11.335861 0.000000 0.000000
									CHANNELS 3 Xrotation Yrotation Zrotation
									JOINT RightHandMiddle2
									{
										OFFSET -3.410492 0.000000 0.000000
										CHANNELS 3 Xrotation Yrotation Zrotation
										JOINT RightHandMiddle3
										{
											OFFSET -3.312172 0.000000 0.000000
											CHANNELS 3 Xrotation Yrotation Zrotation
											End Site
											{
												OFFSET 1.150200 3.080154 0.400270
											}
										}
									}
								}
								JOINT RightHandRing1
								{
									OFFSET -11.514786 -0.013176 -3.003090
									CHANNELS 3 Xrotation Yrotation Zrotation
									JOINT RightHandRing2
									{
										OFFSET -3.053307 0.000000 0.000000
										CHANNELS 3 Xrotation Yrotation Zrotation
										JOINT RightHandRing3
										{
											OFFSET -3.295807 0.000000 0.000000
											CHANNELS 3 Xrotation Yrotation Zrotation
											End Site
											{
												OFFSET 1.281006 3.013344 0.375733
											}
										}
									}
								}
								JOINT RightHandPinky1
								{
									OFFSET -10.518692 -0.960396 -5.730441
									CHANNELS 3 Xrotation Yrotation Zrotation
									JOINT RightHandPinky2
									{
										OFFSET -2.861649 0.000000 0.000000
										CHANNELS 3 Xrotation Yrotation Zrotation
										JOINT RightHandPinky3
										{
											OFFSET -2.863380 0.000000 0.000000
											CHANNELS 3 Xrotation Yrotation Zrotation
											End Site
											{
												OFFSET 0.843597 2.711159 0.369971
											}
										}
									}
								}
							}
							JOINT RSleeve
							{
								OFFSET -6.676277 -0.344902 -1.011730
								CHANNELS 3 Xrotation Yrotation Zrotation
								End Site
								{
									OFFSET 0.000000 14.885353 0.000000
								}
							}
						}
					}
				}
				JOINT Backpack
				{
					OFFSET 0.000000 -2.471497 36.677502
					CHANNELS 3 Xrotation Yrotation Zrotation
					End Site
					{
						OFFSET 0.000000 20.427315 0.000000
					}
				}
				JOINT Hood
				{
					OFFSET 0.000000 18.754097 -10.431000
					CHANNELS 3 Xrotation Yrotation Zrotation
					JOINT Hood1
					{
						OFFSET 0.000000 -5.011002 -7.685901
						CHANNELS 3 Xrotation Yrotation Zrotation
						End Site
						{
							OFFSET 0.000000 9.175140 0.000000
						}
					}
				}
				JOINT LHoodieString
				{
					OFFSET 5.250500 16.397697 3.089900
					CHANNELS 3 Xrotation Yrotation Zrotation
					JOINT LHoodieString1
					{
						OFFSET 0.257700 -6.364304 3.694600
						CHANNELS 3 Xrotation Yrotation Zrotation
						JOINT LHoodieString2
						{
							OFFSET 0.000000 -9.643799 2.679100
							CHANNELS 3 Xrotation Yrotation Zrotation
							End Site
							{
								OFFSET 0.000000 10.009018 0.000000
							}
						}
					}
				}
				JOINT RHoodieString
				{
					OFFSET -5.250500 16.397697 3.089900
					CHANNELS 3 Xrotation Yrotation Zrotation
					JOINT RHoodieString1
					{
						OFFSET -0.257700 -6.364304 3.694600
						CHANNELS 3 Xrotation Yrotation Zrotation
						JOINT RHoodieString2
						{
							OFFSET 0.000000 -9.643799 2.679100
							CHANNELS 3 Xrotation Yrotation Zrotation
							End Site
							{
								OFFSET 0.000000 10.009018 0.000000
							}
						}
					}
				}
			}
			JOINT LBackpack_Strap
			{
				OFFSET 15.223200 -7.719803 -6.610900
				CHANNELS 3 Xrotation Yrotation Zrotation
				End Site
				{
					OFFSET 0.000000 16.040596 0.000000
				}
			}
			JOINT RBackpack_Strap
			{
				OFFSET -15.223000 -7.719803 -6.610900
				CHANNELS 3 Xrotation Yrotation Zrotation
				End Site
				{
					OFFSET 0.000000 16.040596 0.000000
				}
			}
		}
	}
	JOINT BoyFacialAnim_Joint
	{
		OFFSET 1.000000 -82.208099 -1.550900
		CHANNELS 3 Xrotation Yrotation Zrotation
		End Site
		{
			OFFSET 0.000000 30.012791 0.000000
		}
	}
}
MOTION
Frames: 4
Frame Time: 0.033333
-0.628969 73.166542 1.437832 -18.118479 -24.402908 -7.980729 0.000001 -0.000001 -0.000000 -25.386840 9.024578 23.986330 30.235987 0.426432 9.273516 -8.094532 2.311011 -21.350814 -0.000002 -0.000000 0.000000 -0.000002 -0.000000 0.000000 0.000000 0.000000 0.000000 -11.456224 -10.517228 -10.207566 57.679500 -2.717952 -1.586775 -29.769137 -1.965728 7.160472 0.000000 -0.000002 0.000000 0.000000 -0.000002 0.000000 -0.000003 0.000002 0.000000 14.986051 -1.373230 8.626831 8.670879 -0.927431 4.605341 8.693932 -0.809877 4.572669 6.921969 4.133026 -2.667461 -28.297462 21.805348 -0.087267 -0.000001 -0.000000 -0.000001 -0.000001 -0.000000 -0.000001 -0.000001 -0.000000 -0.000001 2.778938 -25.015264 -6.084911 -30.838618 54.565377 -54.490249 0.000092 -108.051229 0.000100 -77.224543 -1.682467 0.533470 -5.834301 0.607769 -12.374763 3.939055 7.948738 0.746814 0.000003 -0.000001 0.000001 5.638654 7.895932 -50.426225 3.182592 5.806721 -57.424262 -0.000001 0.000000 0.000002 4.107872 6.337003 -60.599289 2.234795 5.081166 -47.458951 0.000001 0.000001 0.000002 4.215057 6.865538 -47.774830 1.799602 4.645978 -42.329749 0.000001 0.000001 -0.000000 5.338014 7.848804 -48.021520 0.967986 -0.556055 -30.954506 -0.000000 0.000000 0.000002 0.000001 -0.000001 0.000000 -0.234931 -4.533084 -2.108571 15.650467 45.543886 33.420799 0.000021 123.858719 -0.000033 14.665280 -33.145911 -13.179953 -1.976843 -15.033036 10.051418 8.293715 -18.176636 0.484473 -0.000005 -0.000002 0.000003 0.799075 -3.984073 51.312995 1.284688 -4.031771 35.335806 -0.000001 -0.000005 -0.000001 3.063549 -7.041653 30.703780 1.722664 -4.585815 41.159902 -0.000000 0.000001 0.000002 4.579695 -11.014357 25.531594 1.258218 -3.994205 34.957280 -0.000000 -0.000001 0.000004 0.925883 -5.920587 9.606568 1.405975 -4.197194 37.026100 -0.000004 0.000001 0.000002 -0.000002 -0.000000 -0.000002 -0.000000 0.000001 -0.000001 -0.000000 0.000001 -0.000001 -0.000000 0.000001 -0.000001 -0.000000 0.000001 -0.000001 -0.000000 0.000001 -0.000001 0.000001 0.000003 -0.000001 -0.000000 0.000001 -0.000001 -0.000000 0.000001 -0.000001 0.000001 0.000003 -0.000001 0.000000 -0.000001 0.000001 0.000000 -0.000001 0.000001 0.000001 -0.000001 -0.000000 
-0.204327 73.762726 1.972385 -17.462507 -25.414944 -7.887411 0.000002 -0.000002 -0.000000 -24.617175 9.253185 23.453749 29.309674 1.574459 9.312464 -8.801633 2.427355 -21.274521 -0.000001 0.000001 0.000000 -0.000001 0.000001 0.000000 0.000001 0.000000 -0.000000 -11.232313 -10.208687 -10.378028 55.567697 -2.050411 -1.819929 -28.599028 -2.012963 7.450814 -0.000000 0.000002 -0.000000 -0.000000 0.000002 -0.000000 -0.000000 0.000002 -0.000001 14.393567 -1.401064 8.592704 8.367597 -0.928163 4.607430 8.389966 -0.811496 4.578025 6.972254 4.269434 -2.234772 -28.179165 22.003379 1.216326 0.000000 0.000000 0.000001 0.000000 0.000000 0.000001 0.000000 0.000000 0.000001 2.719347 -25.023689 -5.831297 -30.025074 55.373850 -53.616941 -0.000008 -107.675685 0.000003 -76.267675 -0.645920 -1.067024 -5.047320 1.154705 -11.699765 3.939061 7.948722 0.746798 0.000000 -0.000001 -0.000000 6.265699 9.043683 -45.243870 2.754385 5.511180 -53.083773 -0.000001 0.000000 -0.000002 4.070074 6.325621 -59.880385 2.107221 4.961554 -46.001710 -0.000000 0.000000 0.000000 4.122154 6.828439 -47.002439 1.763597 4.606261 -41.883222 0.000000 -0.000002 0.000001 5.190198 7.818471 -46.937026 0.964020 -0.562700 -30.890415 0.000001 0.000000 0.000001 -0.000002 0.000002 0.000001 -0.229902 -4.528445 -2.044010 16.237228 45.791569 32.338678 -0.000021 123.906749 0.000031 13.888585 -33.483049 -12.848618 -2.307402 -14.758142 9.783358 7.953035 -17.337283 0.414226 0.000001 0.000003 -0.000003 0.684291 -3.727179 48.213889 1.217557 -3.935591 34.369310 0.000001 0.000001 0.000000 2.815434 -7.134184 27.118552 1.533532 -4.360688 38.735314 0.000001 -0.000001 -0.000004 4.303330 -11.494377 22.667523 1.120650 -3.790358 32.931016 0.000001 0.000001 0.000002 0.824547 -6.097511 8.096100 1.372457 -4.152466 36.565568 -0.000000 0.000001 -0.000001 -0.000001 0.000001 0.000001 0.000001 0.000001 0.000001 0.000001 0.000001 0.000001 0.000001 0.000001 0.000001 0.000001 0.000001 0.000001 0.000001 0.000001 -0.000001 0.000000 0.000002 0.000001 0.000001 0.000001 0.000001 0.000001 0.000001 -0.000001 0.000000 0.000002 0.000001 -0.000001 -0.000001 0.000001 -0.000001 -0.000001 0.000001 0.000002 -0.000002 -0.000000 
0.306075 74.361732 2.577862 -16.702613 -26.587816 -7.683231 -0.000000 0.000001 0.000000 -23.877312 9.431417 22.792410 28.479404 2.801601 9.279037 -9.589349 2.551153 -21.142801 0.000000 -0.000000 -0.000000 0.000000 -0.000000 -0.000000 -0.000000 0.000000 -0.000002 -11.117736 -9.768417 -10.612530 53.360487 -1.308813 -2.197050 -27.348708 -2.085937 7.891325 -0.000000 0.000000 -0.000000 -0.000000 0.000000 -0.000000 -0.000000 0.000000 0.000000 13.802626 -1.392933 8.532953 8.058302 -0.910160 4.598699 8.079374 -0.796419 4.572678 7.037297 4.369101 -1.809965 -28.033463 22.048438 2.443819 -0.000000 -0.000001 0.000000 -0.000000 -0.000001 0.000000 -0.000000 -0.000001 0.000000 2.669400 -25.023928 -5.620487 -30.122538 56.275998 -52.320595 -0.000040 -107.105651 -0.000046 -74.715467 1.401513 -3.396030 -5.173978 1.169688 -12.364701 3.939055 7.948742 0.746803 -0.000002 0.000001 0.000002 6.320226 8.933197 -46.416002 2.967450 5.664185 -55.271414 -0.000001 0.000001 0.000000 4.133837 6.348581 -60.821059 2.123591 4.977255 -46.190585 0.000002 -0.000005 0.000001 4.087837 6.778569 -47.309025 1.786888 4.632005 -42.172378 0.000001 -0.000002 -0.000001 5.166224 7.813265 -46.760855 0.967063 -0.557609 -30.939439 0.000001 -0.000001 -0.000000 0.000001 0.000002 -0.000000 -0.232537 -4.559818 -2.036129 16.705524 46.134810 31.357255 -0.000036 123.943591 0.000023 13.169230 -34.192139 -11.139142 -2.280542 -14.779177 9.824760 7.867189 -17.124396 0.396893 -0.000003 0.000003 -0.000000 0.872702 -3.912288 48.586363 1.193089 -3.899644 34.011091 -0.000003 -0.000004 0.000001 2.807583 -7.015076 27.771059 1.487145 -4.302372 38.121232 0.000002 0.000003 0.000000 4.227887 -11.086777 23.265472 1.111730 -3.776590 32.796127 0.000002 -0.000001 0.000002 0.803786 -5.738733 8.506800 1.374376 -4.155069 36.592014 0.000001 0.000001 -0.000001 0.000001 -0.000002 -0.000002 -0.000000 0.000001 -0.000000 -0.000000 0.000001 -0.000000 -0.000000 0.000001 -0.000000 -0.000000 0.000001 -0.000000 -0.000000 0.000001 -0.000000 -0.000000 -0.000002 0.000002 -0.000000 0.000001 -0.000000 -0.000000 0.000001 -0.000000 -0.000000 -0.000002 0.000002 0.000001 -0.000001 0.000000 0.000001 -0.000001 0.000000 -0.000000 0.000001 0.000000 
0.844214 74.900421 3.218523 -16.032880 -27.767314 -7.492390 -0.000000 0.000001 0.000001 -23.177854 9.561552 22.122426 27.787899 4.026709 9.223004 -10.083406 2.615399 -20.954080 -0.000001 0.000000 0.000000 -0.000001 0.000000 0.000000 0.000000 -0.000000 0.000001 -10.979579 -9.416458 -10.953692 51.244655 -0.414812 -2.600262 -26.158013 -2.152291 8.353647 -0.000000 0.000002 0.000000 -0.000000 0.000002 0.000000 0.000000 0.000000 -0.000002 13.384048 -1.345054 8.406593 7.828790 -0.878186 4.558089 7.848078 -0.771072 4.534684 7.109565 4.435055 -1.354348 -27.796172 22.082480 3.427652 -0.000000 0.000000 -0.000000 -0.000000 0.000000 -0.000000 -0.000000 0.000000 -0.000000 2.638727 -25.056508 -5.477063 -31.094102 56.985966 -50.716753 0.000000 -106.526499 0.000008 -73.048361 3.410106 -5.470106 -5.811262 0.777473 -13.124345 3.939058 7.948738 0.746811 0.000000 -0.000001 0.000004 6.180614 8.494452 -48.907672 3.521743 6.008872 -60.718394 0.000002 0.000001 0.000000 4.167341 6.343306 -62.846797 2.250301 5.095284 -47.633825 0.000005 -0.000003 -0.000000 3.950733 6.598527 -48.347371 1.846890 4.697187 -42.910213 0.000001 0.000001 -0.000004 5.305077 7.842264 -47.780202 0.973548 -0.546748 -31.044327 0.000000 -0.000001 -0.000000 0.000002 0.000001 -0.000000 -0.243162 -4.621586 -2.097194 16.885034 46.491674 30.892573 -0.000001 123.874783 -0.000004 12.361271 -35.078513 -7.897630 -1.824741 -15.128881 10.532430 8.014252 -17.488954 0.426963 -0.000002 0.000000 0.000001 1.430469 -4.529661 52.486520 1.213844 -3.930211 34.315639 -0.000001 0.000002 0.000004 3.046024 -6.982346 30.910581 1.546454 -4.376708 38.905232 0.000002 0.000000 -0.000000 4.365344 -10.293208 26.443887 1.291206 -4.040923 35.428345 0.000001 0.000004 0.000003 0.862326 -5.360977 10.094903 1.385612 -4.170144 36.746910 0.000001 0.000001 -0.000001 -0.000000 0.000004 0.000002 -0.000000 -0.000002 -0.000001 -0.000000 -0.000002 -0.000001 -0.000000 -0.000002 -0.000001 -0.000000 -0.000002 -0.000001 -0.000000 -0.000002 0.000001 -0.000000 -0.000002 0.000001 -0.000000 -0.000002 -0.000001 -0.000000 -0.000002 0.000001 -0.000000 -0.000002 0.000001 0.000000 -0.000001 -0.000000 0.000000 -0.000001 -0.000000 -0.000000 0.000001 0.000001 
